{"title":"Machete.2010.V2.Cam.XviD.Feel-Free","uid":5823466,"size":1131001342,"categoryP":"video","categoryS":"movies","magnet":"?xt=urn:btih:ab00a078c67d45cf0a6b0172e7121e73050dea83&amp;dn=Machete.2010.V2.Cam.XviD.Feel-Free&amp;tr=udp%3A%2F%2Ftracker.openbittorrent.com%3A80&amp;tr=udp%3A%2F%2Fopen.demonii.com%3A1337&amp;tr=udp%3A%2F%2Ftracker.coppersurfer.tk%3A6969&amp;tr=udp%3A%2F%2Fexodus.desync.com%3A6969","seeders":0,"leechers":0,"uploader":".BONE.","files":8,"time":1284161546,"description":"\nGenre:Action | Adventure | Crime | Thriller\nLanguage: English\nIMDB:http://www.imdb.com/title/tt0985694/\nSource Video:Relizlab.Thx\nSource Audio:DOEBOY/LKRG.Thx\n\nGeneral\nComplete name :Machete.2010.V2.Cam.XviD.Feel-Free.avi\nFormat : AVI\nFormat/Info : Audio Video Interleave\nFile size : 1.05 GiB\nDuration : 1h 36mn\nOverall bit rate : 1 569 Kbps\nVideo #0\nCodec ID : XVID\nCodec ID/Hint : XviD\nDuration : 1h 36mn\nBit rate : 1 303 Kbps\nWidth : 652 pixels\nHeight : 352 pixels\nDisplay aspect ratio : 1.852\nFrame rate : 25.000 fps\nResolution : 24 bits\nColorimetry : 4:2:0\nScan type : Progressive\nBits/(Pixel*Frame) : 0.227\nStream size : 896 MiB (83%)\nWriting library : XviD 1.2.1 (UTC 2008-12-04)\nAudio #1\nID : 1\nFormat : MPEG Audio\nFormat version : Version 1\nFormat profile : Layer 3\nCodec ID : 55\nCodec ID/Hint : MP3\nDuration : 1h 36mn\nBit rate mode : Constant\nBit rate : 256 Kbps\nChannel(s) : 2 channels\nSampling rate : 48.0 KHz\nResolution : 16 bits\nVideo delay : 5ms\nStream size : 176 MiB (16%)\nAlignment : Split accross interleaves\nInterleave, duration : 40 ms (1.00 video frame)\nInterleave, preload duration : 500 ms\n\nPlot\nAfter being betrayed by the organization who hired him, an ex-Federale launches a brutal rampage of revenge against his former boss\n","torrent":{"xt":"urn:btih:ab00a078c67d45cf0a6b0172e7121e73050dea83","amp;dn":"Machete.2010.V2.Cam.XviD.Feel-Free","amp;tr":["udp%3A%2F%2Ftracker.openbittorrent.com%3A80","udp%3A%2F%2Fopen.demonii.com%3A1337","udp%3A%2F%2Ftracker.coppersurfer.tk%3A6969","udp%3A%2F%2Fexodus.desync.com%3A6969"],"infoHash":"ab00a078c67d45cf0a6b0172e7121e73050dea83","infoHashBuffer":{"type":"Buffer","data":[171,0,160,120,198,125,69,207,10,107,1,114,231,18,30,115,5,13,234,131]},"announce":[],"urlList":[]}}